<?xml version="1.0" encoding="UTF-8" standalone="no"?>
<!-- Generator: Adobe Illustrator 16.0.0, SVG Export Plug-In . SVG Version: 6.00 Build 0)  -->

<svg
   xmlns:dc="http://purl.org/dc/elements/1.1/"
   xmlns:cc="http://creativecommons.org/ns#"
   xmlns:rdf="http://www.w3.org/1999/02/22-rdf-syntax-ns#"
   xmlns:svg="http://www.w3.org/2000/svg"
   xmlns="http://www.w3.org/2000/svg"
   xmlns:sodipodi="http://sodipodi.sourceforge.net/DTD/sodipodi-0.dtd"
   xmlns:inkscape="http://www.inkscape.org/namespaces/inkscape"
   version="1.1"
   id="Layer_1"
   x="0px"
   y="0px"
   width="700"
   height="700"
   viewBox="0 0 700 700"
   enable-background="new 0 0 80 108"
   xml:space="preserve"
   sodipodi:docname="tokyo-2020-logo.svg"
   inkscape:export-filename="G:\Users\suitedoalex\sites\tokyo-2020-logo-4.png"
   inkscape:export-xdpi="125.61448"
   inkscape:export-ydpi="125.61448"
   inkscape:version="0.92.4 (5da689c313, 2019-01-14)"><metadata
   id="metadata126"><rdf:RDF><cc:Work
       rdf:about=""><dc:format>image/svg+xml</dc:format><dc:type
         rdf:resource="http://purl.org/dc/dcmitype/StillImage" /><dc:title></dc:title></cc:Work></rdf:RDF></metadata><defs
   id="defs124" /><sodipodi:namedview
   pagecolor="#ffffff"
   bordercolor="#666666"
   borderopacity="1"
   objecttolerance="10"
   gridtolerance="10"
   guidetolerance="10"
   inkscape:pageopacity="0"
   inkscape:pageshadow="2"
   inkscape:window-width="1600"
   inkscape:window-height="837"
   id="namedview122"
   showgrid="false"
   inkscape:zoom="0.77257963"
   inkscape:cx="218.54195"
   inkscape:cy="296.98204"
   inkscape:window-x="-8"
   inkscape:window-y="-8"
   inkscape:window-maximized="1"
   inkscape:current-layer="Layer_1" />
<g
   id="g119"
   transform="matrix(5.0589063,0,0,5.0589063,142.58154,71.727092)">
	
		<rect
   x="55.359001"
   y="29.632"
   transform="matrix(-0.5004,0.8658,-0.8658,-0.5004,114.9438,-1.7999)"
   width="5.2649999"
   height="5.2620001"
   id="rect2"
   style="fill:#202b5f" />
	<polygon
   points="57.986,19.875 57.986,25.136 63.25,25.136 63.25,19.875 "
   id="polygon4"
   style="fill:#202b5f" />
	
		<rect
   x="50.811001"
   y="59.130001"
   transform="matrix(-0.866,0.5,-0.5,-0.866,131.5289,84.9156)"
   width="7.1550002"
   height="1.896"
   id="rect6"
   style="fill:#202b5f" />
	<rect
   x="66.875"
   y="33.243"
   width="1.896"
   height="7.1589999"
   id="rect8"
   style="fill:#202b5f" />
	
		<rect
   x="60.624001"
   y="49.327999"
   transform="matrix(-0.4999,0.8661,-0.8661,-0.4999,139.8403,19.8025)"
   width="7.158"
   height="1.897"
   id="rect10"
   style="fill:#202b5f" />
	<polygon
   points="47.203,52.907 47.203,60.151 49.193,60.151 49.193,52.907 "
   id="polygon12"
   style="fill:#202b5f" />
	
		<rect
   x="54.805"
   y="52.032001"
   transform="matrix(-0.707,0.7072,-0.7072,-0.707,137.1815,50.9404)"
   width="6.4679999"
   height="3.707"
   id="rect14"
   style="fill:#202b5f" />
	<polygon
   points="57.059,43.081 54.434,40.461 59.011,35.887 61.636,38.509 "
   id="polygon16"
   style="fill:#202b5f" />
	
		<rect
   x="48.738998"
   y="48.321999"
   transform="matrix(-0.2587,0.966,-0.966,-0.2587,113.8841,12.9516)"
   width="6.467"
   height="3.7079999"
   id="rect18"
   style="fill:#202b5f" />
	
		<rect
   x="61.048"
   y="41.261002"
   transform="matrix(-0.2591,0.9658,-0.9658,-0.2591,122.5847,-7.7995)"
   width="6.4710002"
   height="3.7079999"
   id="rect20"
   style="fill:#202b5f" />
	
		<rect
   x="61.039001"
   y="26.863001"
   transform="matrix(-0.2593,0.9658,-0.9658,-0.2593,108.6737,-25.9132)"
   width="6.4710002"
   height="3.707"
   id="rect22"
   style="fill:#202b5f" />
	<polygon
   points="57.986,25.136 51.78,23.409 50.833,27.034 57.039,28.671 "
   id="polygon24"
   style="fill:#202b5f" />
	<rect
   x="25.902"
   y="21.771999"
   width="5.2610002"
   height="5.2610002"
   id="rect26"
   style="fill:#202b5f" />
	<polygon
   points="15.121,26.084 17.71,30.656 22.28,27.981 19.693,23.409 "
   id="polygon28"
   style="fill:#202b5f" />
	
		<rect
   x="53.396999"
   y="10.032"
   transform="matrix(-0.4991,0.8665,-0.8665,-0.4991,93.2671,-26.6847)"
   width="1.898"
   height="7.1620002"
   id="rect30"
   style="fill:#202b5f" />
	
		<rect
   x="23.992001"
   y="12.621"
   transform="matrix(-0.866,0.5,-0.5,-0.866,58.2333,11.5372)"
   width="7.1589999"
   height="1.897"
   id="rect32"
   style="fill:#202b5f" />
	<rect
   x="37.375"
   y="9.0059996"
   width="7.1560001"
   height="1.897"
   id="rect34"
   style="fill:#202b5f" />
	<polygon
   points="57.039,18.148 50.833,21.772 51.78,23.409 57.986,19.875 "
   id="polygon36"
   style="fill:#202b5f" />
	<polygon
   points="49.895,16.203 43.65,14.528 44.606,10.947 50.856,12.621 "
   id="polygon38"
   style="fill:#202b5f" />
	
		<rect
   x="32.882999"
   y="17.565001"
   transform="matrix(-0.2586,0.966,-0.966,-0.2586,63.8133,-7.3764)"
   width="3.7079999"
   height="6.4710002"
   id="rect40"
   style="fill:#202b5f" />
	
		<rect
   x="44.011002"
   y="18.92"
   transform="matrix(-0.9659,0.2588,-0.2588,-0.9659,98.2591,28.6109)"
   width="6.4710002"
   height="3.7090001"
   id="rect42"
   style="fill:#202b5f" />
	
		<rect
   x="31.687"
   y="11.763"
   transform="matrix(-0.9659,0.259,-0.259,-0.9659,72.1771,17.7266)"
   width="6.467"
   height="3.711"
   id="rect44"
   style="fill:#202b5f" />
	
		<rect
   x="19.084"
   y="18.917999"
   transform="matrix(-0.9659,0.2589,-0.2589,-0.9659,49.2561,35.055)"
   width="6.4699998"
   height="3.7079999"
   id="rect46"
   style="fill:#202b5f" />
	<polygon
   points="25.902,27.034 22.28,27.981 23.919,34.193 24.005,34.193 27.541,33.243 "
   id="polygon48"
   style="fill:#202b5f" />
	
		<rect
   x="33.841"
   y="51.249001"
   transform="matrix(-0.866,0.5001,-0.5001,-0.866,95.0007,82.3003)"
   width="5.263"
   height="5.2620001"
   id="rect50"
   style="fill:#202b5f" />
	<polygon
   points="44.616,64.724 47.203,60.151 42.637,57.479 40.049,62.052 "
   id="polygon52"
   style="fill:#202b5f" />
	<rect
   x="13.139"
   y="33.243"
   width="1.897"
   height="7.1589999"
   id="rect54"
   style="fill:#202b5f" />
	
		<rect
   x="26.596001"
   y="56.556"
   transform="matrix(-0.5004,0.8658,-0.8658,-0.5004,93.3892,66.3836)"
   width="1.8940001"
   height="7.158"
   id="rect56"
   style="fill:#202b5f" />
	
		<rect
   x="16.761"
   y="46.713001"
   transform="matrix(-0.8658,0.5004,-0.5004,-0.8658,58.2097,84.9729)"
   width="1.899"
   height="7.158"
   id="rect58"
   style="fill:#202b5f" />
	<polygon
   points="24.005,34.193 23.919,34.193 17.71,30.656 16.761,32.292 22.972,35.917 "
   id="polygon60"
   style="fill:#202b5f" />
	
		<rect
   x="15.904"
   y="39.877998"
   transform="matrix(-0.966,0.2586,-0.2586,-0.966,46.0625,80.1631)"
   width="3.7079999"
   height="6.467"
   id="rect62"
   style="fill:#202b5f" />
	
		<rect
   x="28.315001"
   y="47.050999"
   transform="matrix(-0.9659,0.2589,-0.2589,-0.9659,72.3278,91.0467)"
   width="3.7079999"
   height="6.4679999"
   id="rect64"
   style="fill:#202b5f" />
	
		<rect
   x="22.120001"
   y="36.262001"
   transform="matrix(-0.7072,0.707,-0.707,-0.7072,68.8534,50.4774)"
   width="3.7090001"
   height="6.4689999"
   id="rect66"
   style="fill:#202b5f" />
	
		<rect
   x="22.124001"
   y="50.665001"
   transform="matrix(-0.7071,0.7071,-0.7071,-0.7071,79.0473,75.0573)"
   width="3.7090001"
   height="6.4689999"
   id="rect68"
   style="fill:#202b5f" />
	
		<rect
   x="34.528"
   y="57.863998"
   transform="matrix(-0.7071,0.7071,-0.7071,-0.7071,105.3159,78.575)"
   width="3.7119999"
   height="6.4689999"
   id="rect70"
   style="fill:#202b5f" />
	<polygon
   points="42.637,57.479 47.203,52.907 44.616,50.32 40.049,54.893 "
   id="polygon72"
   style="fill:#202b5f" />
	<polygon
   points="58.953,50.254 54.396,47.622 57.03,43.067 61.587,45.696 "
   id="polygon74"
   style="fill:#202b5f" />
	
		<rect
   x="48.178001"
   y="56.577"
   transform="matrix(-0.4998,0.8662,-0.8662,-0.4998,127.4495,41.4451)"
   width="7.158"
   height="1.897"
   id="rect76"
   style="fill:#202b5f" />
	
		<rect
   x="60.685001"
   y="34.972"
   transform="matrix(-0.5001,0.8659,-0.8659,-0.5001,127.5108,-1.7645)"
   width="7.1599998"
   height="1.895"
   id="rect78"
   style="fill:#202b5f" />
	<rect
   x="38.321999"
   y="14.526"
   width="5.2620001"
   height="5.2610002"
   id="rect80"
   style="fill:#202b5f" />
	<rect
   x="49.881001"
   y="16.25"
   width="7.158"
   height="1.898"
   id="rect82"
   style="fill:#202b5f" />
	<rect
   x="24.955"
   y="16.25"
   width="7.1589999"
   height="1.898"
   id="rect84"
   style="fill:#202b5f" />
	
		<rect
   x="21.316"
   y="44.028999"
   transform="matrix(-0.8661,0.4999,-0.4999,-0.8661,68.0115,75.098)"
   width="5.2600002"
   height="5.2600002"
   id="rect86"
   style="fill:#202b5f" />
	
		<rect
   x="16.756001"
   y="32.307999"
   transform="matrix(-0.8661,0.4998,-0.4998,-0.8661,50.9736,58.1235)"
   width="1.895"
   height="7.158"
   id="rect88"
   style="fill:#202b5f" />
	
		<rect
   x="29.243999"
   y="53.854"
   transform="matrix(-0.8659,0.5002,-0.5002,-0.8659,85.0662,92.0615)"
   width="1.899"
   height="7.1570001"
   id="rect90"
   style="fill:#202b5f" />
	<path
   id="Blue_Ring"
   d="m 33.492,88.616 c 0,-3.534 -2.845,-6.387 -6.382,-6.387 -3.537,0 -6.382,2.853 -6.382,6.387 0,3.535 2.845,6.382 6.382,6.382 v 0 c 0.173,0 0.346,0 0.519,0 0,-0.175 0,-0.346 0,-0.516 0,-0.176 0,-0.346 0,-0.606 H 27.11 c -2.933,0 -5.347,-2.417 -5.347,-5.345 0,-2.938 2.414,-5.349 5.347,-5.349 2.933,0 5.349,2.411 5.349,5.349 0,2.326 -1.466,4.396 -3.709,5.088 0,0.257 -0.085,0.518 -0.085,0.777 v 0.342 c 2.844,-0.601 4.827,-3.193 4.827,-6.122 z"
   inkscape:connector-curvature="0"
   style="fill:#1779bf" />
	<path
   id="Red_Ring"
   d="m 61.266,88.616 c 0.085,3.535 -2.757,6.468 -6.296,6.558 -3.364,0.085 -6.297,-2.591 -6.468,-5.955 0.341,0 0.777,0.089 1.118,0.26 0.436,2.934 3.193,4.918 6.126,4.482 2.933,-0.426 4.912,-3.188 4.487,-6.121 -0.437,-2.933 -3.194,-4.918 -6.127,-4.482 -2.501,0.341 -4.401,2.411 -4.486,4.914 -0.341,-0.091 -0.688,-0.176 -1.033,-0.176 0.346,-3.534 3.449,-6.121 6.983,-5.775 3.194,0.26 5.696,3.017 5.696,6.295 z"
   inkscape:connector-curvature="0"
   style="fill:#e62a43" />
	<path
   id="Green_Ring"
   d="m 47.896,89.133 c 2.672,0 4.918,1.9 5.264,4.572 0.346,0.085 0.687,0.171 1.123,0.256 -0.262,-3.279 -3.108,-5.865 -6.387,-5.865 -0.17,0 -0.342,0 -0.602,0 v 0.521 c 0,0.171 0,0.342 0,0.603 0.26,-0.087 0.432,-0.087 0.602,-0.087 z m 5.348,5.69 c -0.176,2.938 -2.677,5.174 -5.604,5.004 -2.933,-0.172 -5.175,-2.673 -5.003,-5.605 0.085,-2.241 1.554,-4.142 3.705,-4.743 0,-0.26 0.089,-0.521 0.089,-0.777 v -0.346 c -3.453,0.863 -5.519,4.402 -4.571,7.851 0.947,3.449 4.396,5.521 7.846,4.568 2.677,-0.688 4.577,-3.014 4.747,-5.69 -0.521,-0.087 -0.862,-0.176 -1.209,-0.262 z"
   inkscape:connector-curvature="0"
   style="fill:#069848" />
	<path
   id="Yellow_Ring"
   d="m 33.492,89.219 c 0,-0.171 0,-0.346 0,-0.603 v -0.521 c 0.173,0 0.346,0 0.519,0 3.364,0 6.124,2.586 6.382,5.865 -0.343,0 -0.777,-0.085 -1.12,-0.256 -0.431,-2.587 -2.675,-4.572 -5.262,-4.572 -0.173,10e-4 -0.346,10e-4 -0.519,0.087 z m 6.901,5.779 c -0.258,3.535 -3.363,6.127 -6.9,5.865 -3.534,-0.26 -6.124,-3.363 -5.863,-6.902 0.258,-2.673 2.156,-5.003 4.742,-5.689 v 0.345 c 0,0.257 0,0.517 -0.085,0.777 -2.76,0.947 -4.314,3.966 -3.364,6.729 0.948,2.756 3.968,4.312 6.728,3.363 2.068,-0.691 3.534,-2.587 3.622,-4.747 0.431,0.17 0.776,0.259 1.12,0.259 z"
   inkscape:connector-curvature="0"
   style="fill:#f6b619" />
	<path
   id="Black_Ring"
   d="m 40.997,82.229 c -3.364,0 -6.124,2.592 -6.382,5.866 0.344,0 0.689,0.085 1.036,0.176 0.17,-2.934 2.672,-5.18 5.692,-5.004 3.019,0.175 5.174,2.677 4.999,5.69 -0.171,2.16 -1.55,4.055 -3.705,4.747 0,0.256 -0.086,0.517 -0.086,0.777 v 0.341 C 46,93.96 48.071,90.426 47.203,87.061 46.517,84.13 43.93,82.145 40.997,82.229 Z m 0,11.732 c -2.675,0 -4.916,-1.896 -5.261,-4.482 -0.346,-0.085 -0.689,-0.171 -1.121,-0.26 0.259,3.278 3.104,5.865 6.382,5.865 0.17,0 0.346,0 0.516,0 0,-0.175 0,-0.346 0,-0.518 0,-0.17 0,-0.345 0,-0.605 -0.17,0 -0.346,0 -0.516,0 z"
   inkscape:connector-curvature="0"
   style="fill:#231916" />
	<path
   d="M 14.086,77.833 H 12.707 V 70.764 H 10.81 v -1.213 h 5.173 v 1.213 h -1.897 z"
   id="path97"
   inkscape:connector-curvature="0"
   style="fill:#202b5f" />
	<path
   d="m 30.905,77.833 h -1.639 l -1.983,-3.619 -0.777,1.032 v 2.587 h -1.379 v -8.366 h 1.379 v 3.709 0 l 2.501,-3.795 h 1.64 l -2.501,3.625 z"
   id="path99"
   inkscape:connector-curvature="0"
   style="fill:#202b5f" />
	<path
   d="m 35.39,77.833 h -1.293 v -3.619 l -2.155,-4.747 h 1.293 l 1.466,3.278 v 0 l 1.466,-3.278 h 1.466 l -2.156,4.747 v 3.619 z"
   id="path101"
   inkscape:connector-curvature="0"
   style="fill:#202b5f" />
	<path
   d="m 51.951,77.833 h -4.657 v -1.203 0 l 3.103,-3.971 c 0.171,-0.256 0.262,-0.521 0.262,-0.777 0,-0.606 -0.432,-1.032 -1.038,-1.118 v 0 c -0.256,0 -0.517,0.086 -0.777,0.257 -0.256,0.255 -0.341,0.606 -0.341,0.947 v 0.086 h -1.299 v -0.086 c 0,-0.692 0.266,-1.293 0.692,-1.811 0.437,-0.431 1.037,-0.69 1.639,-0.69 0.606,0 1.299,0.26 1.726,0.69 0.435,0.432 0.691,1.118 0.691,1.725 0,0.607 -0.171,1.124 -0.606,1.64 l -2.326,3.019 v 0 h 2.933 v 1.292 z"
   id="path103"
   inkscape:connector-curvature="0"
   style="fill:#202b5f" />
	<path
   d="m 64.975,77.833 h -4.657 v -1.203 0 l 3.104,-3.971 c 0.175,-0.256 0.261,-0.521 0.261,-0.777 0,-0.606 -0.432,-1.032 -1.033,-1.118 v 0 c -0.265,0 -0.521,0.086 -0.776,0.257 -0.261,0.255 -0.351,0.606 -0.351,0.947 v 0.086 h -1.288 v -0.086 c 0,-0.692 0.255,-1.293 0.687,-1.811 0.431,-0.431 1.037,-0.69 1.64,-0.69 0.602,0 1.293,0.26 1.724,0.69 0.432,0.432 0.691,1.118 0.691,1.725 0,0.607 -0.175,1.124 -0.601,1.554 l -2.417,3.104 v 0 h 2.929 z"
   id="path105"
   inkscape:connector-curvature="0"
   style="fill:#202b5f" />
	<path
   d="m 41.253,77.919 c -1.376,0.085 -2.5,-0.948 -2.584,-2.327 0,-0.09 0,-0.09 0,-0.175 v -3.449 c 0,-1.465 1.208,-2.587 2.584,-2.587 1.384,0 2.591,1.208 2.591,2.587 v 3.449 c 0,1.383 -1.037,2.502 -2.415,2.502 v 0 z m 0,-7.155 c -0.688,0 -1.291,0.603 -1.376,1.29 v 3.107 c -0.088,0.777 0.516,1.379 1.207,1.469 0.691,0.086 1.382,-0.521 1.468,-1.213 0,-0.085 0,-0.171 0,-0.171 V 72.228 C 42.637,71.452 42.03,70.85 41.253,70.764 Z"
   id="path107"
   inkscape:connector-curvature="0"
   style="fill:#202b5f" />
	<path
   d="m 20.209,77.919 c -1.378,0.085 -2.499,-0.948 -2.587,-2.327 0,-0.09 0,-0.09 0,-0.175 v -3.449 c 0,-1.379 1.035,-2.501 2.417,-2.501 0.085,0 0.17,0 0.17,0 1.381,-0.086 2.502,0.947 2.589,2.33 0,0.085 0,0.171 0,0.171 v 3.449 c 0,1.383 -1.035,2.502 -2.416,2.502 v 0 z m 0,-7.155 c -0.689,0 -1.293,0.603 -1.378,1.29 v 0.085 3.022 c -0.088,0.777 0.516,1.379 1.208,1.469 0.774,0.086 1.378,-0.521 1.466,-1.213 0,-0.085 0,-0.171 0,-0.171 v -3.018 c 0,-0.692 -0.519,-1.379 -1.208,-1.379 h -0.088 z"
   id="path109"
   inkscape:connector-curvature="0"
   style="fill:#202b5f" />
	<path
   d="m 56.177,77.919 c -1.207,0 -2.245,-0.948 -2.245,-2.241 0,-0.086 0,-0.176 0,-0.176 v -3.62 c 0,-1.293 1.038,-2.331 2.331,-2.331 1.293,0 2.331,1.038 2.331,2.331 v 0 3.62 c 0.085,1.214 -0.863,2.331 -2.07,2.417 -0.091,0 -0.177,0 -0.347,0 z m 0,-7.155 c -0.861,0 -1.032,0.688 -1.032,1.204 v 3.449 c 0,0.862 0.341,1.213 1.032,1.213 0.692,0 1.033,-0.437 1.033,-1.213 v -3.449 c 0,-0.516 -0.171,-1.204 -1.033,-1.204 z"
   id="path111"
   inkscape:connector-curvature="0"
   style="fill:#202b5f" />
	<path
   d="m 68.856,77.919 c -1.209,0 -2.332,-0.948 -2.332,-2.151 0,-0.09 0,-0.176 0,-0.266 v -3.62 c 0,-1.293 1.037,-2.331 2.332,-2.331 1.293,0 2.33,1.038 2.33,2.331 v 0 3.62 c 0.085,1.214 -0.862,2.331 -2.075,2.417 -0.085,0 -0.171,0 -0.255,0 z m 0,-7.155 c -0.863,0 -1.033,0.688 -1.033,1.204 v 3.449 c 0,0.862 0.341,1.213 1.033,1.213 0.69,0 1.031,-0.437 1.031,-1.213 v -3.449 c 0.087,-0.516 -0.169,-1.204 -1.031,-1.204 z"
   id="path113"
   inkscape:connector-curvature="0"
   style="fill:#202b5f" />
	<polygon
   points="61.266,57.134 61.266,57.309 61.872,57.309 61.872,58.858 62.042,58.858 62.042,57.309 62.734,57.309 62.734,57.134 "
   id="polygon115"
   style="fill:#231916" />
	<polygon
   points="63.075,57.479 63.075,57.479 63.596,58.598 63.768,58.598 64.198,57.479 64.283,57.479 64.283,58.858 64.459,58.858 64.459,57.134 64.198,57.134 63.682,58.342 63.161,57.134 62.905,57.134 62.905,58.858 63.075,58.858 "
   id="polygon117"
   style="fill:#231916" />
</g>
</svg>